<?xml version="1.0" encoding="UTF-8" standalone="no"?>
<!DOCTYPE svg PUBLIC "-//W3C//DTD SVG 1.1//EN" "http://www.w3.org/Graphics/SVG/1.1/DTD/svg11.dtd">
<!-- Generated by graphviz version 2.40.1 (20161225.0304)
 -->
<!-- Title: alcohol_map Pages: 1 -->
<svg width="9870pt" height="332pt" viewBox="0.00 0.00 9869.95 332.00" xmlns="http://www.w3.org/2000/svg" xmlns:xlink="http://www.w3.org/1999/xlink">
<g id="graph0" class="graph" transform="scale(1 1) rotate(0) translate(4 328)">
<title>alcohol_map</title>
<polygon fill="#ffffff" stroke="transparent" points="-4,4 -4,-328 9865.9503,-328 9865.9503,4 -4,4"/>
<!-- Алкоголь -->
<g id="node1" class="node">
<title>Алкоголь</title>
<ellipse fill="none" stroke="#000000" cx="6011.8017" cy="-306" rx="109.4569" ry="18"/>
<text text-anchor="middle" x="6011.8017" y="-301.8" font-family="Times,serif" font-size="14.00" fill="#000000">Алкоголь</text>
</g>
<!-- Крепкий -->
<g id="node2" class="node">
<title>Крепкий</title>
<ellipse fill="none" stroke="#000000" cx="5264.8017" cy="-234" rx="94.9206" ry="18"/>
<text text-anchor="middle" x="5264.8017" y="-229.8" font-family="Times,serif" font-size="14.00" fill="#000000">Крепкий</text>
</g>
<!-- Алкоголь&#45;&#45;Крепкий -->
<g id="edge1" class="edge">
<title>Алкоголь--Крепкий</title>
<path fill="none" stroke="#000000" d="M5917.1936,-296.8812C5770.3641,-282.7289 5489.937,-255.6998 5349.4361,-242.1575"/>
</g>
<!-- Лёгкий -->
<g id="node3" class="node">
<title>Лёгкий</title>
<ellipse fill="none" stroke="#000000" cx="7373.8017" cy="-234" rx="83.3617" ry="18"/>
<text text-anchor="middle" x="7373.8017" y="-229.8" font-family="Times,serif" font-size="14.00" fill="#000000">Лёгкий</text>
</g>
<!-- Алкоголь&#45;&#45;Лёгкий -->
<g id="edge2" class="edge">
<title>Алкоголь--Лёгкий</title>
<path fill="none" stroke="#000000" d="M6116.1327,-300.4847C6377.8434,-286.6498 7057.9913,-250.6948 7292.7327,-238.2856"/>
</g>
<!-- Ром -->
<g id="node4" class="node">
<title>Ром</title>
<ellipse fill="none" stroke="#000000" cx="1327.8017" cy="-162" rx="54.4855" ry="18"/>
<text text-anchor="middle" x="1327.8017" y="-157.8" font-family="Times,serif" font-size="14.00" fill="#000000">Ром</text>
</g>
<!-- Крепкий&#45;&#45;Ром -->
<g id="edge3" class="edge">
<title>Крепкий--Ром</title>
<path fill="none" stroke="#000000" d="M5170.4013,-232.2736C4617.5762,-222.1635 1809.6088,-170.8113 1382.3392,-162.9974"/>
</g>
<!-- Водка -->
<g id="node5" class="node">
<title>Водка</title>
<ellipse fill="none" stroke="#000000" cx="4551.8017" cy="-162" rx="73.0305" ry="18"/>
<text text-anchor="middle" x="4551.8017" y="-157.8" font-family="Times,serif" font-size="14.00" fill="#000000">Водка</text>
</g>
<!-- Крепкий&#45;&#45;Водка -->
<g id="edge4" class="edge">
<title>Крепкий--Водка</title>
<path fill="none" stroke="#000000" d="M5180.9149,-225.529C5038.1776,-211.1151 4750.8155,-182.0968 4619.7499,-168.8615"/>
</g>
<!-- Виски -->
<g id="node6" class="node">
<title>Виски</title>
<ellipse fill="none" stroke="#000000" cx="5566.8017" cy="-162" rx="67.7468" ry="18"/>
<text text-anchor="middle" x="5566.8017" y="-157.8" font-family="Times,serif" font-size="14.00" fill="#000000">Виски</text>
</g>
<!-- Крепкий&#45;&#45;Виски -->
<g id="edge5" class="edge">
<title>Крепкий--Виски</title>
<path fill="none" stroke="#000000" d="M5324.1068,-219.861C5380.1065,-206.5101 5463.1852,-186.7033 5516.1566,-174.0743"/>
</g>
<!-- Пиво -->
<g id="node7" class="node">
<title>Пиво</title>
<ellipse fill="none" stroke="#000000" cx="7072.8017" cy="-162" rx="62.5721" ry="18"/>
<text text-anchor="middle" x="7072.8017" y="-157.8" font-family="Times,serif" font-size="14.00" fill="#000000">Пиво</text>
</g>
<!-- Лёгкий&#45;&#45;Пиво -->
<g id="edge6" class="edge">
<title>Лёгкий--Пиво</title>
<path fill="none" stroke="#000000" d="M7317.8913,-220.6261C7261.2768,-207.0837 7174.6305,-186.3577 7120.9656,-173.5209"/>
</g>
<!-- Вино -->
<g id="node8" class="node">
<title>Вино</title>
<ellipse fill="none" stroke="#000000" cx="7712.8017" cy="-162" rx="67.2293" ry="18"/>
<text text-anchor="middle" x="7712.8017" y="-157.8" font-family="Times,serif" font-size="14.00" fill="#000000">Вино</text>
</g>
<!-- Лёгкий&#45;&#45;Вино -->
<g id="edge7" class="edge">
<title>Лёгкий--Вино</title>
<path fill="none" stroke="#000000" d="M7433.2389,-221.3762C7497.3268,-207.7646 7598.3988,-186.2979 7659.8493,-173.2465"/>
</g>
<!-- Вермут -->
<g id="node9" class="node">
<title>Вермут</title>
<ellipse fill="none" stroke="#000000" cx="8878.8017" cy="-162" rx="68.9564" ry="18"/>
<text text-anchor="middle" x="8878.8017" y="-157.8" font-family="Times,serif" font-size="14.00" fill="#000000">Вермут</text>
</g>
<!-- Лёгкий&#45;&#45;Вермут -->
<g id="edge8" class="edge">
<title>Лёгкий--Вермут</title>
<path fill="none" stroke="#000000" d="M7455.2506,-230.1034C7721.7673,-217.3531 8564.8274,-177.0207 8810.8076,-165.2529"/>
</g>
<!-- Тёмный -->
<g id="node10" class="node">
<title>Тёмный</title>
<ellipse fill="none" stroke="#000000" cx="587.8017" cy="-90" rx="87.5013" ry="18"/>
<text text-anchor="middle" x="587.8017" y="-85.8" font-family="Times,serif" font-size="14.00" fill="#000000">Тёмный</text>
</g>
<!-- Ром&#45;&#45;Тёмный -->
<g id="edge9" class="edge">
<title>Ром--Тёмный</title>
<path fill="none" stroke="#000000" d="M1275.4715,-156.9084C1147.7552,-144.482 819.4618,-112.5399 667.3551,-97.7403"/>
</g>
<!-- Золотой -->
<g id="node11" class="node">
<title>Золотой</title>
<ellipse fill="none" stroke="#000000" cx="1327.8017" cy="-90" rx="92.6576" ry="18"/>
<text text-anchor="middle" x="1327.8017" y="-85.8" font-family="Times,serif" font-size="14.00" fill="#000000">Золотой</text>
</g>
<!-- Ром&#45;&#45;Золотой -->
<g id="edge10" class="edge">
<title>Ром--Золотой</title>
<path fill="none" stroke="#000000" d="M1327.8017,-143.8314C1327.8017,-133 1327.8017,-119.2876 1327.8017,-108.4133"/>
</g>
<!-- Сливовая -->
<g id="node12" class="node">
<title>Сливовая</title>
<ellipse fill="none" stroke="#000000" cx="2650.8017" cy="-90" rx="109.4145" ry="18"/>
<text text-anchor="middle" x="2650.8017" y="-85.8" font-family="Times,serif" font-size="14.00" fill="#000000">Сливовая</text>
</g>
<!-- Водка&#45;&#45;Сливовая -->
<g id="edge11" class="edge">
<title>Водка--Сливовая</title>
<path fill="none" stroke="#000000" d="M4479.3132,-159.2545C4188.1734,-148.2277 3103.011,-107.1273 2757.3116,-94.034"/>
</g>
<!-- Яблочная -->
<g id="node13" class="node">
<title>Яблочная</title>
<ellipse fill="none" stroke="#000000" cx="4194.8017" cy="-90" rx="108.2918" ry="18"/>
<text text-anchor="middle" x="4194.8017" y="-85.8" font-family="Times,serif" font-size="14.00" fill="#000000">Яблочная</text>
</g>
<!-- Водка&#45;&#45;Яблочная -->
<g id="edge12" class="edge">
<title>Водка--Яблочная</title>
<path fill="none" stroke="#000000" d="M4494.8392,-150.5118C4432.0418,-137.8467 4331.025,-117.4736 4263.791,-103.9138"/>
</g>
<!-- Анисовая -->
<g id="node14" class="node">
<title>Анисовая</title>
<ellipse fill="none" stroke="#000000" cx="4907.8017" cy="-90" rx="103.6561" ry="18"/>
<text text-anchor="middle" x="4907.8017" y="-85.8" font-family="Times,serif" font-size="14.00" fill="#000000">Анисовая</text>
</g>
<!-- Водка&#45;&#45;Анисовая -->
<g id="edge13" class="edge">
<title>Водка--Анисовая</title>
<path fill="none" stroke="#000000" d="M4608.6046,-150.5118C4671.6187,-137.7673 4773.2245,-117.2179 4840.2626,-103.6596"/>
</g>
<!-- Зерновой -->
<g id="node15" class="node">
<title>Зерновой</title>
<ellipse fill="none" stroke="#000000" cx="5566.8017" cy="-90" rx="111.7854" ry="18"/>
<text text-anchor="middle" x="5566.8017" y="-85.8" font-family="Times,serif" font-size="14.00" fill="#000000">Зерновой</text>
</g>
<!-- Виски&#45;&#45;Зерновой -->
<g id="edge14" class="edge">
<title>Виски--Зерновой</title>
<path fill="none" stroke="#000000" d="M5566.8017,-143.8314C5566.8017,-133 5566.8017,-119.2876 5566.8017,-108.4133"/>
</g>
<!-- Солодовый -->
<g id="node16" class="node">
<title>Солодовый</title>
<ellipse fill="none" stroke="#000000" cx="5962.8017" cy="-90" rx="119.8719" ry="18"/>
<text text-anchor="middle" x="5962.8017" y="-85.8" font-family="Times,serif" font-size="14.00" fill="#000000">Солодовый</text>
</g>
<!-- Виски&#45;&#45;Солодовый -->
<g id="edge15" class="edge">
<title>Виски--Солодовый</title>
<path fill="none" stroke="#000000" d="M5622.6989,-151.8369C5691.562,-139.3163 5808.8946,-117.9831 5886.1353,-103.9393"/>
</g>
<!-- Тёмное -->
<g id="node17" class="node">
<title>Тёмное</title>
<ellipse fill="none" stroke="#000000" cx="6676.8017" cy="-90" rx="93.2412" ry="18"/>
<text text-anchor="middle" x="6676.8017" y="-85.8" font-family="Times,serif" font-size="14.00" fill="#000000">Тёмное</text>
</g>
<!-- Пиво&#45;&#45;Тёмное -->
<g id="edge16" class="edge">
<title>Пиво--Тёмное</title>
<path fill="none" stroke="#000000" d="M7019.8062,-152.3645C6948.7819,-139.451 6822.6541,-116.5186 6744.7314,-102.3509"/>
</g>
<!-- Светлое -->
<g id="node18" class="node">
<title>Светлое</title>
<ellipse fill="none" stroke="#000000" cx="7072.8017" cy="-90" rx="93.8423" ry="18"/>
<text text-anchor="middle" x="7072.8017" y="-85.8" font-family="Times,serif" font-size="14.00" fill="#000000">Светлое</text>
</g>
<!-- Пиво&#45;&#45;Светлое -->
<g id="edge17" class="edge">
<title>Пиво--Светлое</title>
<path fill="none" stroke="#000000" d="M7072.8017,-143.8314C7072.8017,-133 7072.8017,-119.2876 7072.8017,-108.4133"/>
</g>
<!-- Красное -->
<g id="node19" class="node">
<title>Красное</title>
<ellipse fill="none" stroke="#000000" cx="7712.8017" cy="-90" rx="88.0846" ry="18"/>
<text text-anchor="middle" x="7712.8017" y="-85.8" font-family="Times,serif" font-size="14.00" fill="#000000">Красное</text>
</g>
<!-- Вино&#45;&#45;Красное -->
<g id="edge18" class="edge">
<title>Вино--Красное</title>
<path fill="none" stroke="#000000" d="M7712.8017,-143.8314C7712.8017,-133 7712.8017,-119.2876 7712.8017,-108.4133"/>
</g>
<!-- Белое -->
<g id="node20" class="node">
<title>Белое</title>
<ellipse fill="none" stroke="#000000" cx="8233.8017" cy="-90" rx="73.6138" ry="18"/>
<text text-anchor="middle" x="8233.8017" y="-85.8" font-family="Times,serif" font-size="14.00" fill="#000000">Белое</text>
</g>
<!-- Вино&#45;&#45;Белое -->
<g id="edge19" class="edge">
<title>Вино--Белое</title>
<path fill="none" stroke="#000000" d="M7772.8213,-153.7055C7871.6892,-140.0424 8067.9437,-112.9209 8169.5284,-98.8823"/>
</g>
<!-- Горький -->
<g id="node21" class="node">
<title>Горький</title>
<ellipse fill="none" stroke="#000000" cx="8733.8017" cy="-90" rx="85.6899" ry="18"/>
<text text-anchor="middle" x="8733.8017" y="-85.8" font-family="Times,serif" font-size="14.00" fill="#000000">Горький</text>
</g>
<!-- Вермут&#45;&#45;Горький -->
<g id="edge20" class="edge">
<title>Вермут--Горький</title>
<path fill="none" stroke="#000000" d="M8846.6215,-146.0209C8823.0931,-134.3378 8791.2577,-118.5299 8767.4035,-106.6851"/>
</g>
<!-- Розовый -->
<g id="node22" class="node">
<title>Розовый</title>
<ellipse fill="none" stroke="#000000" cx="8977.8017" cy="-90" rx="93.587" ry="18"/>
<text text-anchor="middle" x="8977.8017" y="-85.8" font-family="Times,serif" font-size="14.00" fill="#000000">Розовый</text>
</g>
<!-- Вермут&#45;&#45;Розовый -->
<g id="edge21" class="edge">
<title>Вермут--Розовый</title>
<path fill="none" stroke="#000000" d="M8902.2633,-144.937C8917.816,-133.626 8938.1629,-118.8282 8953.8207,-107.4407"/>
</g>
<!-- Белый -->
<g id="node23" class="node">
<title>Белый</title>
<ellipse fill="none" stroke="#000000" cx="9540.8017" cy="-90" rx="68.3729" ry="18"/>
<text text-anchor="middle" x="9540.8017" y="-85.8" font-family="Times,serif" font-size="14.00" fill="#000000">Белый</text>
</g>
<!-- Вермут&#45;&#45;Белый -->
<g id="edge22" class="edge">
<title>Вермут--Белый</title>
<path fill="none" stroke="#000000" d="M8942.5775,-155.0637C9069.1204,-141.3007 9350.6254,-110.6838 9477.1043,-96.9278"/>
</g>
<!-- Ron Barcelo, Anejo, 0.7 л -->
<g id="node24" class="node">
<title>Ron Barcelo, Anejo, 0.7 л</title>
<ellipse fill="none" stroke="#000000" cx="121.8017" cy="-18" rx="121.6036" ry="18"/>
<text text-anchor="middle" x="121.8017" y="-13.8" font-family="Times,serif" font-size="14.00" fill="#000000">Ron Barcelo, Anejo, 0.7 л</text>
</g>
<!-- Тёмный&#45;&#45;Ron Barcelo, Anejo, 0.7 л -->
<g id="edge23" class="edge">
<title>Тёмный--Ron Barcelo, Anejo, 0.7 л</title>
<path fill="none" stroke="#000000" d="M517.5322,-79.1429C434.1348,-66.2575 295.1823,-44.7884 206.0811,-31.0217"/>
</g>
<!-- Bacardi Carta Negra -->
<g id="node25" class="node">
<title>Bacardi Carta Negra</title>
<ellipse fill="none" stroke="#000000" cx="351.8017" cy="-18" rx="90.285" ry="18"/>
<text text-anchor="middle" x="351.8017" y="-13.8" font-family="Times,serif" font-size="14.00" fill="#000000">Bacardi Carta Negra</text>
</g>
<!-- Тёмный&#45;&#45;Bacardi Carta Negra -->
<g id="edge24" class="edge">
<title>Тёмный--Bacardi Carta Negra</title>
<path fill="none" stroke="#000000" d="M538.6156,-74.9941C498.3595,-62.7126 441.6789,-45.4202 401.33,-33.1104"/>
</g>
<!-- Captain Morgan Black Spiced -->
<g id="node26" class="node">
<title>Captain Morgan Black Spiced</title>
<ellipse fill="none" stroke="#000000" cx="587.8017" cy="-18" rx="127.8928" ry="18"/>
<text text-anchor="middle" x="587.8017" y="-13.8" font-family="Times,serif" font-size="14.00" fill="#000000">Captain Morgan Black Spiced</text>
</g>
<!-- Тёмный&#45;&#45;Captain Morgan Black Spiced -->
<g id="edge25" class="edge">
<title>Тёмный--Captain Morgan Black Spiced</title>
<path fill="none" stroke="#000000" d="M587.8017,-71.8314C587.8017,-61 587.8017,-47.2876 587.8017,-36.4133"/>
</g>
<!-- Botran 12 Anejo -->
<g id="node27" class="node">
<title>Botran 12 Anejo</title>
<ellipse fill="none" stroke="#000000" cx="808.8017" cy="-18" rx="75.306" ry="18"/>
<text text-anchor="middle" x="808.8017" y="-13.8" font-family="Times,serif" font-size="14.00" fill="#000000">Botran 12 Anejo</text>
</g>
<!-- Тёмный&#45;&#45;Botran 12 Anejo -->
<g id="edge26" class="edge">
<title>Тёмный--Botran 12 Anejo</title>
<path fill="none" stroke="#000000" d="M634.6701,-74.7307C672.808,-62.3056 726.2867,-44.8827 763.8876,-32.6326"/>
</g>
<!-- Ron Barcelo Gran Anejo -->
<g id="node28" class="node">
<title>Ron Barcelo Gran Anejo</title>
<ellipse fill="none" stroke="#000000" cx="1009.8017" cy="-18" rx="107.1077" ry="18"/>
<text text-anchor="middle" x="1009.8017" y="-13.8" font-family="Times,serif" font-size="14.00" fill="#000000">Ron Barcelo Gran Anejo</text>
</g>
<!-- Золотой&#45;&#45;Ron Barcelo Gran Anejo -->
<g id="edge27" class="edge">
<title>Золотой--Ron Barcelo Gran Anejo</title>
<path fill="none" stroke="#000000" d="M1267.2398,-76.2879C1211.8268,-63.7416 1130.1156,-45.2409 1073.6824,-32.4636"/>
</g>
<!-- Bacardi OakHeart -->
<g id="node29" class="node">
<title>Bacardi OakHeart</title>
<ellipse fill="none" stroke="#000000" cx="1215.8017" cy="-18" rx="81.0157" ry="18"/>
<text text-anchor="middle" x="1215.8017" y="-13.8" font-family="Times,serif" font-size="14.00" fill="#000000">Bacardi OakHeart</text>
</g>
<!-- Золотой&#45;&#45;Bacardi OakHeart -->
<g id="edge28" class="edge">
<title>Золотой--Bacardi OakHeart</title>
<path fill="none" stroke="#000000" d="M1300.9749,-72.7542C1283.2429,-61.3551 1260.0967,-46.4754 1242.4096,-35.1051"/>
</g>
<!-- Captain Morgan Spiced Gold -->
<g id="node30" class="node">
<title>Captain Morgan Spiced Gold</title>
<ellipse fill="none" stroke="#000000" cx="1438.8017" cy="-18" rx="124.4649" ry="18"/>
<text text-anchor="middle" x="1438.8017" y="-13.8" font-family="Times,serif" font-size="14.00" fill="#000000">Captain Morgan Spiced Gold</text>
</g>
<!-- Золотой&#45;&#45;Captain Morgan Spiced Gold -->
<g id="edge29" class="edge">
<title>Золотой--Captain Morgan Spiced Gold</title>
<path fill="none" stroke="#000000" d="M1354.3889,-72.7542C1371.706,-61.5215 1394.2335,-46.9091 1411.6602,-35.6053"/>
</g>
<!-- Bacardi Reserva 8 Anos -->
<g id="node31" class="node">
<title>Bacardi Reserva 8 Anos</title>
<ellipse fill="none" stroke="#000000" cx="1685.8017" cy="-18" rx="104.7363" ry="18"/>
<text text-anchor="middle" x="1685.8017" y="-13.8" font-family="Times,serif" font-size="14.00" fill="#000000">Bacardi Reserva 8 Anos</text>
</g>
<!-- Золотой&#45;&#45;Bacardi Reserva 8 Anos -->
<g id="edge30" class="edge">
<title>Золотой--Bacardi Reserva 8 Anos</title>
<path fill="none" stroke="#000000" d="M1392.2184,-77.0447C1455.8321,-64.2509 1552.7545,-44.7581 1617.6384,-31.7088"/>
</g>
<!-- Кизлярка Сливовая -->
<g id="node32" class="node">
<title>Кизлярка Сливовая</title>
<ellipse fill="none" stroke="#000000" cx="2007.8017" cy="-18" rx="199.515" ry="18"/>
<text text-anchor="middle" x="2007.8017" y="-13.8" font-family="Times,serif" font-size="14.00" fill="#000000">Кизлярка Сливовая</text>
</g>
<!-- Сливовая&#45;&#45;Кизлярка Сливовая -->
<g id="edge31" class="edge">
<title>Сливовая--Кизлярка Сливовая</title>
<path fill="none" stroke="#000000" d="M2560.379,-79.8749C2448.9111,-67.3933 2258.8612,-46.1124 2133.304,-32.0531"/>
</g>
<!-- Арцах Сливовый -->
<g id="node33" class="node">
<title>Арцах Сливовый</title>
<ellipse fill="none" stroke="#000000" cx="2377.8017" cy="-18" rx="152.2432" ry="18"/>
<text text-anchor="middle" x="2377.8017" y="-13.8" font-family="Times,serif" font-size="14.00" fill="#000000">Арцах Сливовый</text>
</g>
<!-- Сливовая&#45;&#45;Арцах Сливовый -->
<g id="edge32" class="edge">
<title>Сливовая--Арцах Сливовый</title>
<path fill="none" stroke="#000000" d="M2592.9054,-74.7307C2548.1415,-62.9248 2486.2691,-46.6068 2440.3692,-34.5013"/>
</g>
<!-- R. Jelinek, Plum Vodka -->
<g id="node34" class="node">
<title>R. Jelinek, Plum Vodka</title>
<ellipse fill="none" stroke="#000000" cx="2650.8017" cy="-18" rx="103.0745" ry="18"/>
<text text-anchor="middle" x="2650.8017" y="-13.8" font-family="Times,serif" font-size="14.00" fill="#000000">R. Jelinek, Plum Vodka</text>
</g>
<!-- Сливовая&#45;&#45;R. Jelinek, Plum Vodka -->
<g id="edge33" class="edge">
<title>Сливовая--R. Jelinek, Plum Vodka</title>
<path fill="none" stroke="#000000" d="M2650.8017,-71.8314C2650.8017,-61 2650.8017,-47.2876 2650.8017,-36.4133"/>
</g>
<!-- Анасеули Сливовая -->
<g id="node35" class="node">
<title>Анасеули Сливовая</title>
<ellipse fill="none" stroke="#000000" cx="2975.8017" cy="-18" rx="204.3258" ry="18"/>
<text text-anchor="middle" x="2975.8017" y="-13.8" font-family="Times,serif" font-size="14.00" fill="#000000">Анасеули Сливовая</text>
</g>
<!-- Сливовая&#45;&#45;Анасеули Сливовая -->
<g id="edge34" class="edge">
<title>Сливовая--Анасеули Сливовая</title>
<path fill="none" stroke="#000000" d="M2716.1793,-75.5163C2769.3782,-63.7307 2844.5128,-47.0855 2900.2754,-34.732"/>
</g>
<!-- Троекуровка Яблочная -->
<g id="node36" class="node">
<title>Троекуровка Яблочная</title>
<ellipse fill="none" stroke="#000000" cx="3427.8017" cy="-18" rx="230.3768" ry="18"/>
<text text-anchor="middle" x="3427.8017" y="-13.8" font-family="Times,serif" font-size="14.00" fill="#000000">Троекуровка Яблочная</text>
</g>
<!-- Яблочная&#45;&#45;Троекуровка Яблочная -->
<g id="edge35" class="edge">
<title>Яблочная--Троекуровка Яблочная</title>
<path fill="none" stroke="#000000" d="M4100.3681,-81.1353C3969.1325,-68.8159 3730.3134,-46.3975 3575.4242,-31.8577"/>
</g>
<!-- Кизлярка Яблочная -->
<g id="node37" class="node">
<title>Кизлярка Яблочная</title>
<ellipse fill="none" stroke="#000000" cx="3874.8017" cy="-18" rx="198.8923" ry="18"/>
<text text-anchor="middle" x="3874.8017" y="-13.8" font-family="Times,serif" font-size="14.00" fill="#000000">Кизлярка Яблочная</text>
</g>
<!-- Яблочная&#45;&#45;Кизлярка Яблочная -->
<g id="edge36" class="edge">
<title>Яблочная--Кизлярка Яблочная</title>
<path fill="none" stroke="#000000" d="M4130.4298,-75.5163C4078.0494,-63.7307 4004.0707,-47.0855 3949.166,-34.732"/>
</g>
<!-- Самогаръ -->
<g id="node38" class="node">
<title>Самогаръ</title>
<ellipse fill="none" stroke="#000000" cx="4194.8017" cy="-18" rx="103.6561" ry="18"/>
<text text-anchor="middle" x="4194.8017" y="-13.8" font-family="Times,serif" font-size="14.00" fill="#000000">Самогаръ</text>
</g>
<!-- Яблочная&#45;&#45;Самогаръ -->
<g id="edge37" class="edge">
<title>Яблочная--Самогаръ</title>
<path fill="none" stroke="#000000" d="M4194.8017,-71.8314C4194.8017,-61 4194.8017,-47.2876 4194.8017,-36.4133"/>
</g>
<!-- Белая Березка -->
<g id="node39" class="node">
<title>Белая Березка</title>
<ellipse fill="none" stroke="#000000" cx="4465.8017" cy="-18" rx="149.1419" ry="18"/>
<text text-anchor="middle" x="4465.8017" y="-13.8" font-family="Times,serif" font-size="14.00" fill="#000000">Белая Березка</text>
</g>
<!-- Яблочная&#45;&#45;Белая Березка -->
<g id="edge38" class="edge">
<title>Яблочная--Белая Березка</title>
<path fill="none" stroke="#000000" d="M4252.2738,-74.7307C4296.7097,-62.9248 4358.1288,-46.6068 4403.6925,-34.5013"/>
</g>
<!-- Kalashnikov -->
<g id="node40" class="node">
<title>Kalashnikov</title>
<ellipse fill="none" stroke="#000000" cx="4692.8017" cy="-18" rx="59.6935" ry="18"/>
<text text-anchor="middle" x="4692.8017" y="-13.8" font-family="Times,serif" font-size="14.00" fill="#000000">Kalashnikov</text>
</g>
<!-- Анисовая&#45;&#45;Kalashnikov -->
<g id="edge39" class="edge">
<title>Анисовая--Kalashnikov</title>
<path fill="none" stroke="#000000" d="M4860.0862,-74.0209C4821.8591,-61.2192 4768.843,-43.465 4732.8123,-31.3989"/>
</g>
<!-- Isidoros Arvanitis Ouzo Plomari -->
<g id="node41" class="node">
<title>Isidoros Arvanitis Ouzo Plomari</title>
<ellipse fill="none" stroke="#000000" cx="4907.8017" cy="-18" rx="136.6367" ry="18"/>
<text text-anchor="middle" x="4907.8017" y="-13.8" font-family="Times,serif" font-size="14.00" fill="#000000">Isidoros Arvanitis Ouzo Plomari</text>
</g>
<!-- Анисовая&#45;&#45;Isidoros Arvanitis Ouzo Plomari -->
<g id="edge40" class="edge">
<title>Анисовая--Isidoros Arvanitis Ouzo Plomari</title>
<path fill="none" stroke="#000000" d="M4907.8017,-71.8314C4907.8017,-61 4907.8017,-47.2876 4907.8017,-36.4133"/>
</g>
<!-- Алтай -->
<g id="node42" class="node">
<title>Алтай</title>
<ellipse fill="none" stroke="#000000" cx="5130.8017" cy="-18" rx="68.3729" ry="18"/>
<text text-anchor="middle" x="5130.8017" y="-13.8" font-family="Times,serif" font-size="14.00" fill="#000000">Алтай</text>
</g>
<!-- Анисовая&#45;&#45;Алтай -->
<g id="edge41" class="edge">
<title>Анисовая--Алтай</title>
<path fill="none" stroke="#000000" d="M4957.016,-74.1102C4996.0083,-61.5207 5049.9634,-44.1002 5087.3668,-32.0238"/>
</g>
<!-- Ouzo Romios -->
<g id="node43" class="node">
<title>Ouzo Romios</title>
<ellipse fill="none" stroke="#000000" cx="5281.8017" cy="-18" rx="64.3287" ry="18"/>
<text text-anchor="middle" x="5281.8017" y="-13.8" font-family="Times,serif" font-size="14.00" fill="#000000">Ouzo Romios</text>
</g>
<!-- Анисовая&#45;&#45;Ouzo Romios -->
<g id="edge42" class="edge">
<title>Анисовая--Ouzo Romios</title>
<path fill="none" stroke="#000000" d="M4983.5649,-77.6669C5044.3686,-67.4555 5131.8206,-52.0639 5207.8017,-36 5216.21,-34.2223 5225.1191,-32.1869 5233.7327,-30.1393"/>
</g>
<!-- Dewar&#39;s -->
<g id="node44" class="node">
<title>Dewar's</title>
<ellipse fill="none" stroke="#000000" cx="5407.8017" cy="-18" rx="43.9769" ry="18"/>
<text text-anchor="middle" x="5407.8017" y="-13.8" font-family="Times,serif" font-size="14.00" fill="#000000">Dewar's</text>
</g>
<!-- Зерновой&#45;&#45;Dewar&#39;s -->
<g id="edge43" class="edge">
<title>Зерновой--Dewar's</title>
<path fill="none" stroke="#000000" d="M5529.1209,-72.937C5501.02,-60.2121 5463.1741,-43.0743 5437.2689,-31.3437"/>
</g>
<!-- Darby&#39;s -->
<g id="node45" class="node">
<title>Darby's</title>
<ellipse fill="none" stroke="#000000" cx="5511.8017" cy="-18" rx="42.2738" ry="18"/>
<text text-anchor="middle" x="5511.8017" y="-13.8" font-family="Times,serif" font-size="14.00" fill="#000000">Darby's</text>
</g>
<!-- Зерновой&#45;&#45;Darby&#39;s -->
<g id="edge44" class="edge">
<title>Зерновой--Darby's</title>
<path fill="none" stroke="#000000" d="M5552.9228,-71.8314C5544.3943,-60.6667 5533.5274,-46.441 5525.1069,-35.4177"/>
</g>
<!-- Hedonism -->
<g id="node46" class="node">
<title>Hedonism</title>
<ellipse fill="none" stroke="#000000" cx="5622.8017" cy="-18" rx="50.9638" ry="18"/>
<text text-anchor="middle" x="5622.8017" y="-13.8" font-family="Times,serif" font-size="14.00" fill="#000000">Hedonism</text>
</g>
<!-- Зерновой&#45;&#45;Hedonism -->
<g id="edge45" class="edge">
<title>Зерновой--Hedonism</title>
<path fill="none" stroke="#000000" d="M5580.9328,-71.8314C5589.6164,-60.6667 5600.6809,-46.441 5609.2546,-35.4177"/>
</g>
<!-- Fowler&#39;s -->
<g id="node47" class="node">
<title>Fowler's</title>
<ellipse fill="none" stroke="#000000" cx="5736.8017" cy="-18" rx="45.2208" ry="18"/>
<text text-anchor="middle" x="5736.8017" y="-13.8" font-family="Times,serif" font-size="14.00" fill="#000000">Fowler's</text>
</g>
<!-- Зерновой&#45;&#45;Fowler&#39;s -->
<g id="edge46" class="edge">
<title>Зерновой--Fowler's</title>
<path fill="none" stroke="#000000" d="M5606.6591,-73.1192C5636.8858,-60.3173 5677.8416,-42.9713 5705.6798,-31.181"/>
</g>
<!-- Macallan -->
<g id="node48" class="node">
<title>Macallan</title>
<ellipse fill="none" stroke="#000000" cx="5846.8017" cy="-18" rx="46.9265" ry="18"/>
<text text-anchor="middle" x="5846.8017" y="-13.8" font-family="Times,serif" font-size="14.00" fill="#000000">Macallan</text>
</g>
<!-- Солодовый&#45;&#45;Macallan -->
<g id="edge47" class="edge">
<title>Солодовый--Macallan</title>
<path fill="none" stroke="#000000" d="M5934.4249,-72.3868C5915.2418,-60.4801 5890.1491,-44.9053 5871.7344,-33.4755"/>
</g>
<!-- Laphroaig -->
<g id="node49" class="node">
<title>Laphroaig</title>
<ellipse fill="none" stroke="#000000" cx="5962.8017" cy="-18" rx="50.9444" ry="18"/>
<text text-anchor="middle" x="5962.8017" y="-13.8" font-family="Times,serif" font-size="14.00" fill="#000000">Laphroaig</text>
</g>
<!-- Солодовый&#45;&#45;Laphroaig -->
<g id="edge48" class="edge">
<title>Солодовый--Laphroaig</title>
<path fill="none" stroke="#000000" d="M5962.8017,-71.8314C5962.8017,-61 5962.8017,-47.2876 5962.8017,-36.4133"/>
</g>
<!-- Glenmorangie -->
<g id="node50" class="node">
<title>Glenmorangie</title>
<ellipse fill="none" stroke="#000000" cx="6097.8017" cy="-18" rx="66.0531" ry="18"/>
<text text-anchor="middle" x="6097.8017" y="-13.8" font-family="Times,serif" font-size="14.00" fill="#000000">Glenmorangie</text>
</g>
<!-- Солодовый&#45;&#45;Glenmorangie -->
<g id="edge49" class="edge">
<title>Солодовый--Glenmorangie</title>
<path fill="none" stroke="#000000" d="M5995.4814,-72.5708C6017.331,-60.9177 6045.8838,-45.6895 6067.2735,-34.2817"/>
</g>
<!-- Auchentoshan -->
<g id="node51" class="node">
<title>Auchentoshan</title>
<ellipse fill="none" stroke="#000000" cx="6248.8017" cy="-18" rx="66.0569" ry="18"/>
<text text-anchor="middle" x="6248.8017" y="-13.8" font-family="Times,serif" font-size="14.00" fill="#000000">Auchentoshan</text>
</g>
<!-- Солодовый&#45;&#45;Auchentoshan -->
<g id="edge50" class="edge">
<title>Солодовый--Auchentoshan</title>
<path fill="none" stroke="#000000" d="M6024.5073,-74.4657C6077.0549,-61.2369 6151.533,-42.4872 6200.002,-30.2852"/>
</g>
<!-- Guinness -->
<g id="node52" class="node">
<title>Guinness</title>
<ellipse fill="none" stroke="#000000" cx="6379.8017" cy="-18" rx="46.9497" ry="18"/>
<text text-anchor="middle" x="6379.8017" y="-13.8" font-family="Times,serif" font-size="14.00" fill="#000000">Guinness</text>
</g>
<!-- Тёмное&#45;&#45;Guinness -->
<g id="edge51" class="edge">
<title>Тёмное--Guinness</title>
<path fill="none" stroke="#000000" d="M6611.7126,-77.0829C6562.9916,-67.0114 6494.8616,-52.073 6435.8017,-36 6429.1011,-34.1765 6422.0091,-32.0517 6415.2063,-29.9143"/>
</g>
<!-- Westmalle dark -->
<g id="node53" class="node">
<title>Westmalle dark</title>
<ellipse fill="none" stroke="#000000" cx="6516.8017" cy="-18" rx="71.8067" ry="18"/>
<text text-anchor="middle" x="6516.8017" y="-13.8" font-family="Times,serif" font-size="14.00" fill="#000000">Westmalle dark</text>
</g>
<!-- Тёмное&#45;&#45;Westmalle dark -->
<g id="edge52" class="edge">
<title>Тёмное--Westmalle dark</title>
<path fill="none" stroke="#000000" d="M6639.6923,-73.3008C6613.1977,-61.3782 6577.7922,-45.4457 6551.7907,-33.7451"/>
</g>
<!-- Weihenstephan -->
<g id="node54" class="node">
<title>Weihenstephan</title>
<ellipse fill="none" stroke="#000000" cx="6676.8017" cy="-18" rx="70.6277" ry="18"/>
<text text-anchor="middle" x="6676.8017" y="-13.8" font-family="Times,serif" font-size="14.00" fill="#000000">Weihenstephan</text>
</g>
<!-- Тёмное&#45;&#45;Weihenstephan -->
<g id="edge53" class="edge">
<title>Тёмное--Weihenstephan</title>
<path fill="none" stroke="#000000" d="M6676.8017,-71.8314C6676.8017,-61 6676.8017,-47.2876 6676.8017,-36.4133"/>
</g>
<!-- Leffe -->
<g id="node55" class="node">
<title>Leffe</title>
<ellipse fill="none" stroke="#000000" cx="6797.8017" cy="-18" rx="31.878" ry="18"/>
<text text-anchor="middle" x="6797.8017" y="-13.8" font-family="Times,serif" font-size="14.00" fill="#000000">Leffe</text>
</g>
<!-- Тёмное&#45;&#45;Leffe -->
<g id="edge54" class="edge">
<title>Тёмное--Leffe</title>
<path fill="none" stroke="#000000" d="M6705.7842,-72.7542C6727.1783,-60.0238 6755.8678,-42.9524 6775.4905,-31.276"/>
</g>
<!-- Engel -->
<g id="node56" class="node">
<title>Engel</title>
<ellipse fill="none" stroke="#000000" cx="6881.8017" cy="-18" rx="33.6266" ry="18"/>
<text text-anchor="middle" x="6881.8017" y="-13.8" font-family="Times,serif" font-size="14.00" fill="#000000">Engel</text>
</g>
<!-- Светлое&#45;&#45;Engel -->
<g id="edge55" class="edge">
<title>Светлое--Engel</title>
<path fill="none" stroke="#000000" d="M7027.5824,-74.1174C6998.1713,-63.6357 6959.0576,-49.4109 6924.8017,-36 6919.3757,-33.8758 6913.6005,-31.5226 6908.1017,-29.2373"/>
</g>
<!-- Westmalle light -->
<g id="node57" class="node">
<title>Westmalle light</title>
<ellipse fill="none" stroke="#000000" cx="7005.8017" cy="-18" rx="72.4055" ry="18"/>
<text text-anchor="middle" x="7005.8017" y="-13.8" font-family="Times,serif" font-size="14.00" fill="#000000">Westmalle light</text>
</g>
<!-- Светлое&#45;&#45;Westmalle light -->
<g id="edge56" class="edge">
<title>Светлое--Westmalle light</title>
<path fill="none" stroke="#000000" d="M7056.2399,-72.2022C7045.8545,-61.0419 7032.5219,-46.7143 7022.173,-35.593"/>
</g>
<!-- Hofbrau -->
<g id="node58" class="node">
<title>Hofbrau</title>
<ellipse fill="none" stroke="#000000" cx="7139.8017" cy="-18" rx="43.4202" ry="18"/>
<text text-anchor="middle" x="7139.8017" y="-13.8" font-family="Times,serif" font-size="14.00" fill="#000000">Hofbrau</text>
</g>
<!-- Светлое&#45;&#45;Hofbrau -->
<g id="edge57" class="edge">
<title>Светлое--Hofbrau</title>
<path fill="none" stroke="#000000" d="M7089.3635,-72.2022C7099.9038,-60.8753 7113.48,-46.2859 7123.8917,-35.0972"/>
</g>
<!-- Paulaner -->
<g id="node59" class="node">
<title>Paulaner</title>
<ellipse fill="none" stroke="#000000" cx="7245.8017" cy="-18" rx="44.6414" ry="18"/>
<text text-anchor="middle" x="7245.8017" y="-13.8" font-family="Times,serif" font-size="14.00" fill="#000000">Paulaner</text>
</g>
<!-- Светлое&#45;&#45;Paulaner -->
<g id="edge58" class="edge">
<title>Светлое--Paulaner</title>
<path fill="none" stroke="#000000" d="M7112.4914,-73.4817C7143.5157,-60.5699 7186.0367,-42.8733 7214.6409,-30.9686"/>
</g>
<!-- Chateau Les Jouberts -->
<g id="node60" class="node">
<title>Chateau Les Jouberts</title>
<ellipse fill="none" stroke="#000000" cx="7401.8017" cy="-18" rx="93.7591" ry="18"/>
<text text-anchor="middle" x="7401.8017" y="-13.8" font-family="Times,serif" font-size="14.00" fill="#000000">Chateau Les Jouberts</text>
</g>
<!-- Красное&#45;&#45;Chateau Les Jouberts -->
<g id="edge59" class="edge">
<title>Красное--Chateau Les Jouberts</title>
<path fill="none" stroke="#000000" d="M7654.3049,-76.4574C7599.2309,-63.7071 7517.1275,-44.6992 7461.6246,-31.8497"/>
</g>
<!-- Marques de Montejos -->
<g id="node61" class="node">
<title>Marques de Montejos</title>
<ellipse fill="none" stroke="#000000" cx="7608.8017" cy="-18" rx="95.4888" ry="18"/>
<text text-anchor="middle" x="7608.8017" y="-13.8" font-family="Times,serif" font-size="14.00" fill="#000000">Marques de Montejos</text>
</g>
<!-- Красное&#45;&#45;Marques de Montejos -->
<g id="edge60" class="edge">
<title>Красное--Marques de Montejos</title>
<path fill="none" stroke="#000000" d="M7687.6262,-72.5708C7671.395,-61.3339 7650.3622,-46.7727 7634.1058,-35.5182"/>
</g>
<!-- Ramirez de la Piscina -->
<g id="node62" class="node">
<title>Ramirez de la Piscina</title>
<ellipse fill="none" stroke="#000000" cx="7816.8017" cy="-18" rx="94.9378" ry="18"/>
<text text-anchor="middle" x="7816.8017" y="-13.8" font-family="Times,serif" font-size="14.00" fill="#000000">Ramirez de la Piscina</text>
</g>
<!-- Красное&#45;&#45;Ramirez de la Piscina -->
<g id="edge61" class="edge">
<title>Красное--Ramirez de la Piscina</title>
<path fill="none" stroke="#000000" d="M7737.9772,-72.5708C7754.2083,-61.3339 7775.2411,-46.7727 7791.4975,-35.5182"/>
</g>
<!-- Familia Bastida -->
<g id="node63" class="node">
<title>Familia Bastida</title>
<ellipse fill="none" stroke="#000000" cx="8001.8017" cy="-18" rx="71.8414" ry="18"/>
<text text-anchor="middle" x="8001.8017" y="-13.8" font-family="Times,serif" font-size="14.00" fill="#000000">Familia Bastida</text>
</g>
<!-- Красное&#45;&#45;Familia Bastida -->
<g id="edge62" class="edge">
<title>Красное--Familia Bastida</title>
<path fill="none" stroke="#000000" d="M7768.8664,-76.0323C7821.5573,-62.9052 7899.7387,-43.4275 7950.7366,-30.7221"/>
</g>
<!-- Rio Lilo -->
<g id="node64" class="node">
<title>Rio Lilo</title>
<ellipse fill="none" stroke="#000000" cx="8134.8017" cy="-18" rx="43.4967" ry="18"/>
<text text-anchor="middle" x="8134.8017" y="-13.8" font-family="Times,serif" font-size="14.00" fill="#000000">Rio Lilo</text>
</g>
<!-- Белое&#45;&#45;Rio Lilo -->
<g id="edge63" class="edge">
<title>Белое--Rio Lilo</title>
<path fill="none" stroke="#000000" d="M8210.0887,-72.7542C8193.8429,-60.9391 8172.4556,-45.3847 8156.6291,-33.8745"/>
</g>
<!-- Sander -->
<g id="node65" class="node">
<title>Sander</title>
<ellipse fill="none" stroke="#000000" cx="8233.8017" cy="-18" rx="37.7006" ry="18"/>
<text text-anchor="middle" x="8233.8017" y="-13.8" font-family="Times,serif" font-size="14.00" fill="#000000">Sander</text>
</g>
<!-- Белое&#45;&#45;Sander -->
<g id="edge64" class="edge">
<title>Белое--Sander</title>
<path fill="none" stroke="#000000" d="M8233.8017,-71.8314C8233.8017,-61 8233.8017,-47.2876 8233.8017,-36.4133"/>
</g>
<!-- Brancott Estate -->
<g id="node66" class="node">
<title>Brancott Estate</title>
<ellipse fill="none" stroke="#000000" cx="8359.8017" cy="-18" rx="70.0991" ry="18"/>
<text text-anchor="middle" x="8359.8017" y="-13.8" font-family="Times,serif" font-size="14.00" fill="#000000">Brancott Estate</text>
</g>
<!-- Белое&#45;&#45;Brancott Estate -->
<g id="edge65" class="edge">
<title>Белое--Brancott Estate</title>
<path fill="none" stroke="#000000" d="M8263.0253,-73.3008C8283.3809,-61.669 8310.4157,-46.2206 8330.7365,-34.6087"/>
</g>
<!-- Askaneli Brothers -->
<g id="node67" class="node">
<title>Askaneli Brothers</title>
<ellipse fill="none" stroke="#000000" cx="8528.8017" cy="-18" rx="81.0562" ry="18"/>
<text text-anchor="middle" x="8528.8017" y="-13.8" font-family="Times,serif" font-size="14.00" fill="#000000">Askaneli Brothers</text>
</g>
<!-- Белое&#45;&#45;Askaneli Brothers -->
<g id="edge66" class="edge">
<title>Белое--Askaneli Brothers</title>
<path fill="none" stroke="#000000" d="M8286.2018,-77.2108C8339.1011,-64.2998 8420.4492,-44.4453 8474.1415,-31.3408"/>
</g>
<!-- Casa Mariol -->
<g id="node68" class="node">
<title>Casa Mariol</title>
<ellipse fill="none" stroke="#000000" cx="8686.8017" cy="-18" rx="58.5027" ry="18"/>
<text text-anchor="middle" x="8686.8017" y="-13.8" font-family="Times,serif" font-size="14.00" fill="#000000">Casa Mariol</text>
</g>
<!-- Горький&#45;&#45;Casa Mariol -->
<g id="edge67" class="edge">
<title>Горький--Casa Mariol</title>
<path fill="none" stroke="#000000" d="M8721.9416,-71.8314C8714.7623,-60.8334 8705.6441,-46.865 8698.4951,-35.9134"/>
</g>
<!-- Martini Rosso -->
<g id="node69" class="node">
<title>Martini Rosso</title>
<ellipse fill="none" stroke="#000000" cx="8829.8017" cy="-18" rx="66.0482" ry="18"/>
<text text-anchor="middle" x="8829.8017" y="-13.8" font-family="Times,serif" font-size="14.00" fill="#000000">Martini Rosso</text>
</g>
<!-- Розовый&#45;&#45;Martini Rosso -->
<g id="edge68" class="edge">
<title>Розовый--Martini Rosso</title>
<path fill="none" stroke="#000000" d="M8943.1022,-73.1192C8918.6669,-61.2317 8886.1776,-45.4261 8862.2566,-33.7889"/>
</g>
<!-- Gancia Rosso -->
<g id="node70" class="node">
<title>Gancia Rosso</title>
<ellipse fill="none" stroke="#000000" cx="8977.8017" cy="-18" rx="64.3056" ry="18"/>
<text text-anchor="middle" x="8977.8017" y="-13.8" font-family="Times,serif" font-size="14.00" fill="#000000">Gancia Rosso</text>
</g>
<!-- Розовый&#45;&#45;Gancia Rosso -->
<g id="edge69" class="edge">
<title>Розовый--Gancia Rosso</title>
<path fill="none" stroke="#000000" d="M8977.8017,-71.8314C8977.8017,-61 8977.8017,-47.2876 8977.8017,-36.4133"/>
</g>
<!-- Cinzano Rosso -->
<g id="node71" class="node">
<title>Cinzano Rosso</title>
<ellipse fill="none" stroke="#000000" cx="9129.8017" cy="-18" rx="69.4845" ry="18"/>
<text text-anchor="middle" x="9129.8017" y="-13.8" font-family="Times,serif" font-size="14.00" fill="#000000">Cinzano Rosso</text>
</g>
<!-- Розовый&#45;&#45;Cinzano Rosso -->
<g id="edge70" class="edge">
<title>Розовый--Cinzano Rosso</title>
<path fill="none" stroke="#000000" d="M9013.0556,-73.3008C9038.1377,-61.4198 9071.6264,-45.5567 9096.3035,-33.8675"/>
</g>
<!-- Sacred -->
<g id="node72" class="node">
<title>Sacred</title>
<ellipse fill="none" stroke="#000000" cx="9254.8017" cy="-18" rx="37.1174" ry="18"/>
<text text-anchor="middle" x="9254.8017" y="-13.8" font-family="Times,serif" font-size="14.00" fill="#000000">Sacred</text>
</g>
<!-- Розовый&#45;&#45;Sacred -->
<g id="edge71" class="edge">
<title>Розовый--Sacred</title>
<path fill="none" stroke="#000000" d="M9043.3652,-77.0723C9089.7263,-67.3339 9153.1087,-52.8093 9207.8017,-36 9213.8152,-34.1518 9220.1639,-31.9194 9226.1835,-29.6651"/>
</g>
<!-- Martini Bianco -->
<g id="node73" class="node">
<title>Martini Bianco</title>
<ellipse fill="none" stroke="#000000" cx="9379.8017" cy="-18" rx="69.5408" ry="18"/>
<text text-anchor="middle" x="9379.8017" y="-13.8" font-family="Times,serif" font-size="14.00" fill="#000000">Martini Bianco</text>
</g>
<!-- Белый&#45;&#45;Martini Bianco -->
<g id="edge72" class="edge">
<title>Белый--Martini Bianco</title>
<path fill="none" stroke="#000000" d="M9505.8671,-74.3771C9478.862,-62.3003 9441.656,-45.6616 9414.6681,-33.5924"/>
</g>
<!-- Cinzano Bianco -->
<g id="node74" class="node">
<title>Cinzano Bianco</title>
<ellipse fill="none" stroke="#000000" cx="9540.8017" cy="-18" rx="72.9755" ry="18"/>
<text text-anchor="middle" x="9540.8017" y="-13.8" font-family="Times,serif" font-size="14.00" fill="#000000">Cinzano Bianco</text>
</g>
<!-- Белый&#45;&#45;Cinzano Bianco -->
<g id="edge73" class="edge">
<title>Белый--Cinzano Bianco</title>
<path fill="none" stroke="#000000" d="M9540.8017,-71.8314C9540.8017,-61 9540.8017,-47.2876 9540.8017,-36.4133"/>
</g>
<!-- Delasy -->
<g id="node75" class="node">
<title>Delasy</title>
<ellipse fill="none" stroke="#000000" cx="9669.8017" cy="-18" rx="37.6986" ry="18"/>
<text text-anchor="middle" x="9669.8017" y="-13.8" font-family="Times,serif" font-size="14.00" fill="#000000">Delasy</text>
</g>
<!-- Белый&#45;&#45;Delasy -->
<g id="edge74" class="edge">
<title>Белый--Delasy</title>
<path fill="none" stroke="#000000" d="M9570.0738,-73.6621C9592.6721,-61.049 9623.5929,-43.7909 9644.9864,-31.8504"/>
</g>
<!-- Gancia Bianco -->
<g id="node76" class="node">
<title>Gancia Bianco</title>
<ellipse fill="none" stroke="#000000" cx="9793.8017" cy="-18" rx="68.2976" ry="18"/>
<text text-anchor="middle" x="9793.8017" y="-13.8" font-family="Times,serif" font-size="14.00" fill="#000000">Gancia Bianco</text>
</g>
<!-- Белый&#45;&#45;Gancia Bianco -->
<g id="edge75" class="edge">
<title>Белый--Gancia Bianco</title>
<path fill="none" stroke="#000000" d="M9587.5006,-76.7102C9633.0471,-63.7483 9701.9219,-44.1476 9747.3751,-31.2123"/>
</g>
</g>
</svg>